<svg width="58" height="58" viewBox="0 0 58 58" fill="none" xmlns="http://www.w3.org/2000/svg">
<g id="draw">
<path id="Vector" d="M46.1643 25.1092L48.7259 22.5475C50.6109 20.6625 50.6109 17.5933 48.7259 15.7083L45.3184 12.3008C43.4334 10.4158 40.3643 10.4158 38.4793 12.3008L35.9176 14.8625L46.1643 25.1092ZM35.9176 28.5408L18.5176 45.9167H15.1101V42.5092L32.4859 25.1333L35.9176 28.5408ZM32.4859 18.27L10.2768 40.5033V50.75H20.5234L42.7326 28.5408L32.4859 18.27ZM46.5268 42.2917C46.5268 47.5842 40.3884 50.75 34.4434 50.75C33.1143 50.75 32.0268 49.6625 32.0268 48.3333C32.0268 47.0042 33.1143 45.9167 34.4434 45.9167C38.1651 45.9167 41.6934 44.1525 41.6934 42.2917C41.6934 41.1558 40.5334 40.1892 38.7209 39.3917L42.2976 35.815C44.8834 37.3375 46.5268 39.3675 46.5268 42.2917ZM11.6784 32.2625C9.33427 30.9092 7.86011 29.145 7.86011 26.5833C7.86011 22.2333 12.4276 20.2275 16.4634 18.4633C18.9526 17.3517 22.3601 15.8533 22.3601 14.5C22.3601 13.5092 20.4751 12.0833 17.5268 12.0833C14.4818 12.0833 13.1768 13.5575 13.1043 13.63C12.2584 14.6208 10.7359 14.7417 9.72094 13.92C8.73011 13.0983 8.53677 11.6242 9.35844 10.585C9.62427 10.2467 12.1134 7.25 17.5268 7.25C22.9401 7.25 27.1934 10.44 27.1934 14.5C27.1934 19.0192 22.5293 21.0733 18.3968 22.8858C16.1251 23.8767 12.6934 25.375 12.6934 26.5833C12.6934 27.3325 13.7326 28.0333 15.2793 28.6617L11.6784 32.2625Z" fill="#1596BD"/>
</g>
</svg>
