<svg width="113" height="161" viewBox="0 0 113 161" fill="none" xmlns="http://www.w3.org/2000/svg">
<path d="M28.571 114.825C28.302 114.825 28.1675 114.635 28.1675 114.257C28.1675 113.878 28.3638 113.456 28.7564 112.99C29.4108 112.204 30.3196 111.749 31.483 111.625L32.0828 111.593C33.4061 111.593 34.3658 112.12 34.962 113.176C35.3183 113.824 35.4964 114.57 35.4964 115.414C35.4964 115.764 35.4674 116.131 35.4092 116.517C35.1983 117.813 34.6967 118.912 33.9041 119.815C33.0316 120.812 32.0137 121.311 30.8504 121.311C29.6943 121.311 28.96 120.987 28.6474 120.339C28.5528 120.135 28.5056 119.92 28.5056 119.695C28.5056 119.462 28.5674 119.218 28.691 118.963C28.9309 118.497 29.2581 118.264 29.6725 118.264C29.7089 118.264 29.7307 118.286 29.738 118.33C29.7525 118.366 29.7489 118.406 29.7271 118.45C29.7125 118.493 29.6871 118.515 29.6507 118.515C29.4035 118.515 29.189 118.675 29.0073 118.996C28.8909 119.221 28.8328 119.429 28.8328 119.618C28.8328 119.807 28.8691 119.982 28.9418 120.142C29.1745 120.637 29.7307 120.885 30.6105 120.885C31.6066 120.885 32.5081 120.375 33.3152 119.356C34.0423 118.439 34.5112 117.362 34.7221 116.124C34.7948 115.724 34.8312 115.345 34.8312 114.988C34.8312 114.195 34.653 113.525 34.2968 112.979C33.8242 112.244 33.0825 111.877 32.0719 111.877C30.8068 111.877 29.8579 112.302 29.2254 113.154C28.9055 113.591 28.7455 113.999 28.7455 114.377C28.7455 114.53 28.7782 114.606 28.8437 114.606C28.8 114.752 28.7092 114.825 28.571 114.825ZM30.1415 118.963C30.1415 117.857 30.2397 116.783 30.436 115.742C30.6323 114.694 30.8722 113.867 31.1558 113.263C31.4466 112.652 31.7265 112.346 31.9956 112.346C32.1119 112.346 32.17 112.404 32.17 112.521C31.8429 113.198 31.5557 114.1 31.3085 115.229C30.8504 117.289 30.6214 118.777 30.6214 119.695C30.6214 119.789 30.5705 119.836 30.4687 119.836C30.2506 119.836 30.1415 119.545 30.1415 118.963Z" fill="black"/>
<path d="M39.7336 116.91C39.4573 116.91 39.3192 116.608 39.3192 116.004C39.3192 115.662 39.3846 115.342 39.5155 115.043C39.0211 115.473 38.4685 116.273 37.8578 117.445C37.247 118.61 36.9416 119.371 36.9416 119.727C36.9416 119.815 36.8835 119.858 36.7671 119.858C36.5563 119.858 36.4509 119.571 36.4509 118.996C36.4509 117.911 36.5599 116.928 36.7781 116.048C36.9962 115.167 37.2616 114.726 37.5742 114.726C37.7123 114.726 37.7814 114.806 37.7814 114.967C37.447 116.029 37.207 117.118 37.0616 118.231H37.138C37.7269 116.87 38.3776 115.807 39.0902 115.043C39.4973 114.606 39.8681 114.388 40.2026 114.388C40.2753 114.388 40.3335 114.41 40.3771 114.453C40.428 114.497 40.4534 114.552 40.4534 114.617C40.4025 114.668 40.3407 114.745 40.268 114.847C40.1953 114.948 40.0972 115.192 39.9736 115.578C39.85 115.957 39.7882 116.372 39.7882 116.823C39.7882 116.881 39.77 116.91 39.7336 116.91Z" fill="black"/>
<path d="M41.3619 120.044C40.7657 120.044 40.4676 119.574 40.4676 118.635C40.4676 118.075 40.6057 117.46 40.882 116.79C41.2674 115.851 41.7727 115.21 42.398 114.868C42.667 114.723 42.9179 114.65 43.1505 114.65C43.3832 114.65 43.565 114.701 43.6958 114.803C43.834 114.905 43.9212 115.007 43.9576 115.109L44.023 115.25C44.0012 115.374 43.9394 115.436 43.8376 115.436C43.7213 115.436 43.6522 115.411 43.6304 115.36C43.6158 115.301 43.5977 115.254 43.5759 115.218C43.554 115.174 43.5031 115.119 43.4232 115.054C43.3432 114.981 43.2523 114.945 43.1505 114.945C42.6779 114.945 42.2489 115.371 41.8636 116.222C41.4273 117.205 41.2092 118.129 41.2092 118.996C41.2092 119.432 41.2965 119.651 41.471 119.651C41.6091 119.651 41.8018 119.498 42.049 119.192C42.3035 118.879 42.5689 118.49 42.8451 118.024C43.325 117.223 43.714 116.528 44.0121 115.938C44.2593 115.414 44.5138 115.152 44.7755 115.152C44.9137 115.152 44.9828 115.236 44.9828 115.403C44.9173 115.542 44.8337 115.738 44.7319 115.993C44.6301 116.248 44.4956 116.754 44.3284 117.511C44.1612 118.268 44.0775 119.021 44.0775 119.771C44.0775 120.521 44.1902 120.896 44.4156 120.896C44.5029 120.896 44.5829 120.856 44.6556 120.775C44.7283 120.703 44.7937 120.59 44.8519 120.437C44.8737 120.357 44.9246 120.317 45.0046 120.317C45.0337 120.317 45.0555 120.328 45.07 120.35C45.0845 120.371 45.0845 120.408 45.07 120.459C45.0555 120.51 45.03 120.579 44.9937 120.666C44.9573 120.761 44.8773 120.885 44.7537 121.037C44.6374 121.19 44.5138 121.267 44.3829 121.267C44.0775 121.267 43.8412 121.067 43.674 120.666C43.5141 120.266 43.4341 119.793 43.4341 119.247C43.4341 118.701 43.4741 118.177 43.554 117.674H43.445C42.5216 119.254 41.8272 120.044 41.3619 120.044Z" fill="black"/>
<path d="M51.5757 115.098C51.7866 115.258 51.9865 115.338 52.1756 115.338C52.3719 115.338 52.51 115.312 52.59 115.261C52.59 115.356 52.5464 115.447 52.4591 115.534C52.3791 115.615 52.2592 115.655 52.0992 115.655C51.9465 115.655 51.7793 115.618 51.5975 115.545C51.583 116.23 51.4703 116.932 51.2594 117.653C51.0486 118.366 50.7759 118.967 50.4415 119.454C50.107 119.935 49.7762 120.175 49.449 120.175C49.1218 120.175 48.871 120.048 48.6965 119.793C48.5147 119.509 48.4238 119.105 48.4238 118.581C48.4238 118.282 48.442 117.962 48.4784 117.62C47.5768 119.236 46.8824 120.044 46.3953 120.044C45.9154 120.044 45.6755 119.636 45.6755 118.821C45.6755 117.977 45.8827 117.074 46.2971 116.113C46.6461 115.349 46.966 114.948 47.2569 114.912C47.395 114.912 47.4641 114.988 47.4641 115.141C47.3768 115.352 47.2678 115.625 47.1369 115.96C47.006 116.288 46.8315 116.816 46.6134 117.544C46.4026 118.271 46.2971 118.81 46.2971 119.16C46.2971 119.502 46.3735 119.673 46.5262 119.673C46.7152 119.673 47.0097 119.367 47.4096 118.756C47.8167 118.144 48.173 117.533 48.4784 116.921L48.9473 116.015C49.1509 115.607 49.3327 115.403 49.4926 115.403C49.6526 115.403 49.7326 115.48 49.7326 115.633C49.2891 117.154 49.0673 118.344 49.0673 119.203C49.0673 119.604 49.1836 119.804 49.4163 119.804C49.678 119.804 49.9507 119.589 50.2343 119.16C50.5251 118.723 50.765 118.159 50.9541 117.467C51.1504 116.768 51.2485 116.08 51.2485 115.403V115.338C51.0377 115.185 50.8668 115.003 50.7359 114.792C50.6051 114.581 50.5396 114.424 50.5396 114.322C50.5396 114.213 50.5869 114.115 50.6814 114.028C50.7759 113.94 50.8777 113.897 50.9868 113.897C51.1249 113.897 51.2485 114.02 51.3576 114.268C51.4667 114.508 51.5394 114.785 51.5757 115.098Z" fill="black"/>
<path d="M57.356 114.453C57.356 114.992 57.5087 115.28 57.814 115.316C57.7922 115.418 57.7086 115.469 57.5632 115.469C57.2651 115.469 57.0542 115.287 56.9306 114.923C56.8725 114.756 56.8434 114.552 56.8434 114.311C56.8434 114.064 56.9379 113.769 57.1269 113.427C57.5559 112.634 58.3339 112.124 59.4609 111.898C59.8462 111.826 60.257 111.789 60.6933 111.789C61.1368 111.789 61.5149 111.746 61.8275 111.658C62.1402 111.571 62.3546 111.473 62.471 111.363C62.7764 111.08 63.0017 110.938 63.1472 110.938C63.2926 110.938 63.3653 110.981 63.3653 111.069C63.3653 111.09 63.3653 111.112 63.3653 111.134C63.3144 111.338 63.0963 111.531 62.7109 111.713C62.4782 111.815 62.2165 111.895 61.9257 111.953C61.6857 112.055 61.4858 112.335 61.3258 112.794C61.1659 113.245 60.9986 113.9 60.8241 114.759C61.2022 114.723 61.5149 114.705 61.7621 114.705C61.8275 114.705 61.8566 114.745 61.8493 114.825C61.8202 114.912 61.7439 114.959 61.6203 114.967C61.4967 114.967 61.2095 115.003 60.7587 115.076C60.417 116.765 60.1189 117.958 59.8644 118.657C59.2246 120.426 58.3121 121.31 57.1269 121.31C56.2763 121.31 55.7455 120.921 55.5346 120.142C55.4547 119.873 55.4147 119.604 55.4147 119.334C55.4147 118.825 55.5492 118.315 55.8182 117.806C56.2254 117.027 56.7598 116.637 57.4214 116.637C57.5159 116.637 57.5923 116.659 57.6504 116.703C57.7159 116.746 57.7595 116.812 57.7813 116.899C57.156 116.899 56.6398 117.223 56.2326 117.871C55.9127 118.373 55.7528 118.894 55.7528 119.432C55.7528 120.219 56.0291 120.699 56.5816 120.874C56.7125 120.91 56.8834 120.928 57.0942 120.928C57.3051 120.928 57.5268 120.866 57.7595 120.743C57.9994 120.626 58.2139 120.408 58.403 120.088C58.5993 119.775 58.7592 119.513 58.8828 119.301C59.0064 119.083 59.1482 118.697 59.3082 118.144C59.4972 117.467 59.6572 116.841 59.7881 116.266C59.9189 115.684 59.9989 115.334 60.028 115.218C59.6208 115.283 59.3118 115.316 59.101 115.316C58.8974 115.316 58.7811 115.225 58.752 115.043C58.7447 114.897 58.7847 114.814 58.8719 114.792C58.9083 114.836 59.021 114.857 59.21 114.857C59.4063 114.857 59.7117 114.839 60.1261 114.803C60.3079 114.089 60.4824 113.511 60.6496 113.067C60.8169 112.615 61.0132 112.273 61.2386 112.04C61.1222 112.048 60.9405 112.051 60.6933 112.051C59.2973 112.051 58.3194 112.463 57.7595 113.285C57.4905 113.671 57.356 114.06 57.356 114.453ZM62.1547 116.692C62.1547 116.728 62.122 116.746 62.0565 116.746C61.9911 116.746 61.9257 116.732 61.8602 116.703C61.8021 116.674 61.773 116.634 61.773 116.583C61.773 115.84 61.8566 115.243 62.0238 114.792C62.1911 114.333 62.4128 114.104 62.6891 114.104C62.7618 114.104 62.8236 114.13 62.8745 114.18C62.9254 114.231 62.9509 114.301 62.9509 114.388C62.6237 114.715 62.3874 115.203 62.2419 115.851C62.1838 116.12 62.1547 116.401 62.1547 116.692Z" fill="black"/>
<path d="M66.3334 116.91C66.0571 116.91 65.919 116.608 65.919 116.004C65.919 115.662 65.9844 115.342 66.1153 115.043C65.6209 115.473 65.0683 116.273 64.4576 117.445C63.8468 118.61 63.5414 119.371 63.5414 119.727C63.5414 119.815 63.4833 119.858 63.3669 119.858C63.1561 119.858 63.0507 119.571 63.0507 118.996C63.0507 117.911 63.1597 116.928 63.3778 116.048C63.596 115.167 63.8614 114.726 64.174 114.726C64.3121 114.726 64.3812 114.806 64.3812 114.967C64.0468 116.029 63.8068 117.118 63.6614 118.231H63.7377C64.3267 116.87 64.9774 115.807 65.69 115.043C66.0971 114.606 66.4679 114.388 66.8024 114.388C66.8751 114.388 66.9333 114.41 66.9769 114.453C67.0278 114.497 67.0532 114.552 67.0532 114.617C67.0023 114.668 66.9405 114.745 66.8678 114.847C66.7951 114.948 66.697 115.192 66.5734 115.578C66.4498 115.957 66.388 116.372 66.388 116.823C66.388 116.881 66.3698 116.91 66.3334 116.91Z" fill="black"/>
<path d="M69.903 114.748C70.4556 114.748 70.7319 115.072 70.7319 115.72C70.7319 116.091 70.6083 116.481 70.3611 116.888C69.9394 117.565 69.3795 117.904 68.6815 117.904C68.5725 117.904 68.4816 117.886 68.4089 117.849C68.3362 117.813 68.2816 117.758 68.2453 117.685C68.7615 117.685 69.2341 117.387 69.6631 116.79C70.0121 116.31 70.1866 115.869 70.1866 115.469C70.1866 115.17 70.0666 115.021 69.8267 115.021C69.3468 115.021 68.8996 115.396 68.4852 116.146C68.0417 116.961 67.8199 117.798 67.8199 118.657C67.8199 119.385 68.0272 119.822 68.4416 119.967C68.5216 119.997 68.6234 120.011 68.747 120.011C68.8706 120.011 69.0014 119.982 69.1396 119.924C69.2777 119.858 69.3941 119.782 69.4886 119.694C69.6776 119.52 69.8339 119.327 69.9575 119.116C69.9866 119.058 70.0412 119.028 70.1211 119.028C70.252 119.028 70.3138 119.05 70.3065 119.094C70.2847 119.174 70.2011 119.309 70.0557 119.498C69.9176 119.687 69.7867 119.84 69.6631 119.957C69.5467 120.066 69.3904 120.164 69.1941 120.251C69.0051 120.346 68.8124 120.393 68.6161 120.393C67.8454 120.393 67.3546 120.029 67.1438 119.301C67.0783 119.054 67.0456 118.799 67.0456 118.537C67.0456 118.049 67.1583 117.518 67.3837 116.943C67.74 116.069 68.2307 115.44 68.856 115.054C69.1978 114.85 69.5467 114.748 69.903 114.748Z" fill="black"/>
<path d="M74.1367 114.748C74.6892 114.748 74.9655 115.072 74.9655 115.72C74.9655 116.091 74.8419 116.481 74.5947 116.888C74.173 117.565 73.6132 117.904 72.9152 117.904C72.8061 117.904 72.7152 117.886 72.6425 117.849C72.5698 117.813 72.5153 117.758 72.4789 117.685C72.9951 117.685 73.4678 117.387 73.8967 116.79C74.2457 116.31 74.4202 115.869 74.4202 115.469C74.4202 115.17 74.3003 115.021 74.0603 115.021C73.5804 115.021 73.1333 115.396 72.7189 116.146C72.2753 116.961 72.0536 117.798 72.0536 118.657C72.0536 119.385 72.2608 119.822 72.6752 119.967C72.7552 119.997 72.857 120.011 72.9806 120.011C73.1042 120.011 73.2351 119.982 73.3732 119.924C73.5114 119.858 73.6277 119.782 73.7222 119.694C73.9113 119.52 74.0676 119.327 74.1912 119.116C74.2203 119.058 74.2748 119.028 74.3548 119.028C74.4857 119.028 74.5475 119.05 74.5402 119.094C74.5184 119.174 74.4348 119.309 74.2893 119.498C74.1512 119.687 74.0203 119.84 73.8967 119.957C73.7804 120.066 73.6241 120.164 73.4278 120.251C73.2387 120.346 73.046 120.393 72.8497 120.393C72.079 120.393 71.5882 120.029 71.3774 119.301C71.312 119.054 71.2792 118.799 71.2792 118.537C71.2792 118.049 71.3919 117.518 71.6173 116.943C71.9736 116.069 72.4644 115.44 73.0897 115.054C73.4314 114.85 73.7804 114.748 74.1367 114.748Z" fill="black"/>
<path d="M77.116 121.638C76.6943 121.638 76.3817 121.416 76.1781 120.972C75.9818 120.528 75.8836 119.862 75.8836 118.974C75.8836 118.086 76.0145 117.034 76.2762 115.818C76.538 114.603 76.8434 113.595 77.1924 112.794C77.5486 111.993 77.8576 111.593 78.1194 111.593C78.243 111.593 78.3048 111.666 78.3048 111.811C78.1521 112.16 77.9594 112.688 77.7268 113.394C77.4941 114.093 77.2978 114.741 77.1378 115.338C76.9851 115.935 76.8434 116.634 76.7125 117.434C76.5889 118.235 76.5271 118.923 76.5271 119.498C76.5271 120.066 76.5816 120.503 76.6907 120.808C76.807 121.121 76.9633 121.278 77.1596 121.278C77.3269 121.278 77.4868 121.198 77.6395 121.038C77.7922 120.885 77.9013 120.732 77.9667 120.579C78.003 120.499 78.0685 120.477 78.163 120.513C78.1994 120.528 78.2066 120.557 78.1848 120.601C78.1703 120.652 78.1412 120.714 78.0976 120.786C78.0612 120.859 77.9921 120.972 77.8903 121.125C77.6722 121.467 77.4141 121.638 77.116 121.638Z" fill="black"/>
<path d="M78.6938 123.461C79.3482 123.461 79.8608 123.152 80.2316 122.533C80.5515 121.987 80.7987 121.307 80.9732 120.492C79.6572 120.521 78.6466 121.023 77.9413 121.998C77.8977 122.064 77.8286 122.075 77.7341 122.031C77.6832 122.002 77.6686 121.966 77.6905 121.922C78.0031 121.449 78.4393 121.045 78.9992 120.71C79.559 120.382 80.2389 120.204 81.0387 120.175C81.1186 119.811 81.195 119.385 81.2677 118.897C81.3404 118.41 81.424 117.937 81.5185 117.478H81.4204C80.4752 119.159 79.7554 120 79.2609 120C78.7084 120 78.4321 119.574 78.4321 118.723C78.4321 117.871 78.6138 117.016 78.9774 116.157C79.3409 115.291 79.6717 114.825 79.9698 114.759L80.0353 114.748C80.1589 114.748 80.2207 114.828 80.2207 114.988C80.1407 115.185 80.0389 115.443 79.9153 115.764C79.7917 116.077 79.6281 116.597 79.4245 117.325C79.221 118.046 79.1192 118.61 79.1192 119.018C79.1192 119.418 79.2064 119.618 79.3809 119.618C79.5845 119.618 79.9117 119.265 80.3625 118.559C81.0241 117.525 81.5985 116.477 82.0857 115.414C82.2965 114.97 82.5219 114.748 82.7618 114.748C82.9145 114.748 82.9909 114.832 82.9909 114.999C82.8527 115.254 82.6855 115.731 82.4892 116.43C82.2929 117.129 82.1329 117.835 82.0093 118.548C81.8857 119.254 81.7803 119.807 81.693 120.208C82.2456 120.302 82.5655 120.543 82.6528 120.928C82.6673 120.994 82.6746 121.081 82.6746 121.19C82.6746 121.307 82.631 121.405 82.5437 121.485C82.4565 121.573 82.3801 121.616 82.3147 121.616C82.3292 121.565 82.3329 121.474 82.3256 121.343C82.3183 121.219 82.2929 121.114 82.2492 121.027C82.2129 120.939 82.1402 120.848 82.0311 120.754C81.9221 120.659 81.7803 120.59 81.6058 120.546C81.0459 122.657 80.0753 123.713 78.6938 123.713C78.0976 123.713 77.7014 123.502 77.505 123.079C77.4978 123.057 77.4941 123.039 77.4941 123.025C77.4941 122.981 77.5341 122.952 77.6141 122.937C77.6868 122.93 77.7413 122.956 77.7777 123.014C77.9086 123.312 78.214 123.461 78.6938 123.461Z" fill="black"/>
<path d="M84.2982 120.12C84.1455 120.12 84.0692 119.978 84.0692 119.695C84.0692 119.52 84.1164 119.334 84.2109 119.138C84.3055 118.941 84.44 118.843 84.6145 118.843C84.7599 118.843 84.8326 118.927 84.8326 119.094C84.8326 119.261 84.6981 119.542 84.4291 119.935L84.2982 120.12Z" fill="black"/>
<path d="M19.7987 103.006C19.7642 101.591 19.747 100.797 19.747 99.3645C19.747 97.9321 19.747 97.0865 19.7987 95.6369C19.8332 94.2045 20.0745 94.1528 21.2811 94.0665C21.3845 93.9629 21.3845 93.7731 21.2811 93.6696C20.6433 93.7041 19.5746 93.7558 19.0575 93.7558C18.5404 93.7558 17.3682 93.7041 16.8166 93.6696C16.7132 93.7731 16.7132 93.9629 16.8166 94.0665C18.0233 94.17 18.2991 94.2045 18.3335 95.6369C18.368 97.0693 18.3852 97.9149 18.3852 99.3472C18.3852 100.78 18.368 101.573 18.3335 103.006C18.2991 104.438 18.0233 104.524 16.8166 104.576C16.7132 104.68 16.7132 104.87 16.8166 104.973C17.4889 104.939 18.5404 104.887 19.0575 104.887C19.5746 104.887 20.5744 104.921 21.2811 104.973C21.3845 104.87 21.3845 104.68 21.2811 104.576C20.0745 104.524 19.8332 104.438 19.7987 103.006Z" fill="black"/>
<path d="M31.6609 95.8267L31.6782 101.815C31.6782 102.143 31.592 102.333 31.4713 102.333C31.3334 102.333 31.1438 102.022 30.6439 101.384L24.7315 93.7558L22.5079 93.7213C22.4045 93.8249 22.4045 94.0147 22.5079 94.1182C23.3353 94.17 23.7662 94.7223 23.9558 95.3953L23.9386 102.816C23.9386 104.352 23.6456 104.455 22.439 104.576C22.3355 104.68 22.3355 104.87 22.439 104.973C23.2836 104.956 23.5766 104.887 24.3006 104.887C25.0246 104.887 25.2831 104.956 26.145 104.973C26.2484 104.87 26.2484 104.68 26.145 104.576C24.9384 104.455 24.6453 104.386 24.6453 102.816L24.6281 97.3109C24.6281 96.7241 24.7143 96.4653 24.8522 96.4653C24.9556 96.4653 25.1452 96.6551 25.4383 97.0347L31.4541 104.645C31.6437 104.904 31.8678 105.059 32.1436 105.059C32.3849 105.059 32.3504 104.852 32.3504 104.524L32.3677 95.8267C32.3677 94.2908 32.6607 94.1873 33.8673 94.0665C33.9707 93.9629 33.9707 93.7731 33.8673 93.6696C33.0227 93.6868 32.7297 93.7558 32.0057 93.7558C31.2817 93.7558 31.0232 93.6868 30.1613 93.6696C30.0579 93.7731 30.0579 93.9629 30.1613 94.0665C31.3679 94.1873 31.6609 94.2563 31.6609 95.8267Z" fill="black"/>
<path d="M37.8441 103.006C37.8096 101.625 37.7924 100.831 37.7924 99.468C38.3957 99.4853 38.999 99.7614 39.361 100.21L42.0672 103.627C42.412 104.076 42.6533 104.593 42.6878 104.87C42.6878 104.921 42.705 104.973 42.774 104.973C43.1187 104.956 43.0842 104.887 43.6014 104.887C44.2736 104.887 44.7046 104.956 45.5147 104.973C45.6181 104.87 45.6181 104.68 45.5147 104.576C45.2044 104.524 44.4115 104.352 43.8255 103.627L40.0505 99.1401C39.9126 98.9848 39.8264 98.8468 39.8264 98.7087C39.8264 98.5879 39.8436 98.4671 40.4297 97.8631L42.9636 95.2572C43.7565 94.4116 44.6184 94.1528 45.3079 94.0665C45.4113 93.9629 45.4113 93.7731 45.3079 93.6696C44.4977 93.6868 44.1874 93.7558 43.4979 93.7558C42.8084 93.7558 42.2741 93.6868 41.4639 93.6696C41.3605 93.7731 41.3605 93.9629 41.4639 94.0665C42.0845 94.1182 42.8257 94.4116 42.119 95.1882L39.361 98.2255C38.999 98.6224 38.4302 98.9331 37.7924 98.9848C37.7924 97.7768 37.8096 96.9485 37.8441 95.6369C37.8786 94.2045 38.1371 94.1182 39.3437 94.0665C39.4472 93.9629 39.4472 93.7731 39.3437 93.6696C38.4991 93.6868 37.9648 93.7558 37.0856 93.7558C36.2238 93.7558 35.7411 93.6868 34.8793 93.6696C34.7758 93.7731 34.7758 93.9629 34.8793 94.0665C36.0859 94.1182 36.3272 94.2045 36.3617 95.6369C36.3962 97.0693 36.4306 97.9149 36.4306 99.3472C36.4306 100.78 36.3962 101.573 36.3617 103.006C36.3272 104.438 36.0859 104.524 34.8793 104.576C34.7758 104.68 34.7758 104.87 34.8793 104.973C35.7239 104.956 36.241 104.887 37.1201 104.887C37.982 104.887 38.4819 104.956 39.3437 104.973C39.4472 104.87 39.4472 104.68 39.3437 104.576C38.1371 104.524 37.8786 104.438 37.8441 103.006Z" fill="black"/>
<path d="M52.4697 93.9975C51.4699 93.8594 51.5216 93.5315 49.8323 93.5315C48.0914 93.5315 46.5573 94.6877 46.5573 96.517C46.5573 98.1392 47.6949 98.9158 49.0394 99.4853C50.1254 99.9685 51.9181 100.348 51.9181 102.316C51.9181 103.713 51.0907 104.611 49.7289 104.611C48.1086 104.611 46.902 103.713 46.5228 101.988C46.3159 101.919 46.2987 101.953 46.1436 102.039C46.2125 103.368 46.2815 103.817 46.4883 104.663C47.5743 104.663 48.0397 105.059 49.5738 105.059C50.3667 105.059 51.1079 104.87 51.7112 104.507C52.6937 103.886 53.3315 102.816 53.3315 101.712C53.3315 100.072 52.2111 99.2955 50.9528 98.7605C50.1254 98.4153 47.7466 97.7423 47.7466 96.0511C47.7466 95.0847 48.6602 93.9457 49.66 93.9457C51.3492 93.9457 52.056 95.1882 52.4007 96.3272C52.5903 96.3272 52.6248 96.3445 52.7799 96.2237C52.7282 95.3953 52.6593 94.9121 52.4697 93.9975Z" fill="black"/>
<path d="M60.0778 105.059C61.7498 105.059 63.4563 104.266 64.6285 102.73C64.5423 102.574 64.4216 102.471 64.232 102.471C63.0082 103.817 61.836 104.352 60.2329 104.352C57.5612 104.352 56.2166 101.642 56.2166 99.1229C56.2166 96.3099 58.0093 93.9975 60.1812 93.9975C62.56 93.9975 63.577 95.5851 64.0252 97.0693C64.1803 97.0865 64.2837 97.0693 64.4216 96.983C64.3354 96.0856 64.2148 95.2572 64.0424 94.3081C63.1633 94.2218 62.3876 93.5315 60.2674 93.5315C56.8544 93.5315 54.6653 96.2064 54.6653 99.4508C54.6653 102.505 56.3718 105.059 60.0778 105.059Z" fill="black"/>
<path d="M69.7202 100.089C69.341 100.089 69.2204 99.9512 69.2893 99.7787L71.0992 95.309H71.1509L72.8057 100.089H69.7202ZM67.7724 103.696L68.8067 101.021C68.8929 100.797 68.9963 100.642 69.41 100.642H73.0126L74.0985 103.817C74.3399 104.524 73.6504 104.524 72.823 104.576C72.7195 104.68 72.7195 104.87 72.823 104.973C73.4608 104.956 74.4088 104.887 75.0811 104.887C75.7878 104.887 76.529 104.956 77.1668 104.973C77.2702 104.87 77.2702 104.68 77.1668 104.576C76.4945 104.524 75.9257 104.455 75.6154 103.575L72.0128 93.5315C71.7543 93.6868 71.3406 93.8766 71.1165 93.8766L67.1174 103.299C66.6692 104.352 66.1521 104.524 65.3937 104.576C65.2902 104.68 65.2902 104.87 65.3937 104.973C66.0315 104.956 66.4279 104.887 67.1002 104.887C67.8069 104.887 68.324 104.956 68.9618 104.973C69.0652 104.87 69.0652 104.68 68.9618 104.576C68.3068 104.542 67.4966 104.421 67.7724 103.696Z" fill="black"/>
<path d="M80.5146 99.7787C80.8938 99.8995 81.3937 99.934 81.9798 99.934C85.117 99.934 86.0133 97.9666 86.0133 96.4998C86.0133 95.4816 85.3756 93.5833 82.1866 93.5833C81.7385 93.5833 80.5319 93.7558 79.8424 93.7558C78.9805 93.7558 78.4978 93.6868 77.636 93.6695C77.5326 93.7731 77.5326 93.9629 77.636 94.0665C78.8426 94.1182 79.1012 94.2045 79.1184 95.6369C79.1356 97.0692 79.1529 97.9149 79.1529 99.3472C79.1529 100.78 79.1529 101.573 79.1184 103.006C79.0839 104.455 78.8426 104.524 77.636 104.576C77.5326 104.68 77.5326 104.87 77.636 104.973C78.4806 104.956 78.9977 104.887 79.8768 104.887C80.8421 104.887 81.4627 104.956 82.3245 104.973C82.428 104.87 82.428 104.68 82.3245 104.576C81.1352 104.507 80.5663 104.421 80.5491 103.42C80.5319 102.126 80.5146 101.021 80.5146 99.7787ZM80.5491 94.8258C80.5663 94.3253 80.8421 93.9974 82.0832 93.9974C83.2726 93.9974 84.4964 94.6187 84.4964 96.8104C84.4964 98.6742 83.5484 99.5198 81.8764 99.5198C81.4627 99.5198 80.7387 99.4853 80.5146 99.4335V99.3472C80.5146 97.9149 80.5319 96.2582 80.5491 94.8258Z" fill="black"/>
<path d="M92.1601 98.726L90.1433 98.7433C90.1433 98.7433 90.126 96.3963 90.1778 94.9811C90.195 94.567 90.4018 94.2218 90.8155 94.2218H93.5046C94.7974 94.2218 95.0559 95.1365 95.4352 96.3272C95.642 96.3617 95.6765 96.3272 95.8488 96.2409C95.7627 95.5334 95.5041 93.8249 95.4696 93.6868C95.4696 93.6523 95.4524 93.6351 95.4007 93.6351C95.1076 93.6868 94.9525 93.7559 94.5388 93.7559H89.5055C88.9884 93.7559 88.1265 93.6868 87.2646 93.6696C87.1612 93.7731 87.1612 93.963 87.2646 94.0665C88.4713 94.1183 88.6953 94.2046 88.747 95.6369C88.7815 97.052 88.7815 97.9149 88.7815 99.3473C88.7815 100.78 88.7815 101.591 88.747 103.006C88.6953 104.438 88.4713 104.524 87.2646 104.576C87.1612 104.68 87.1612 104.87 87.2646 104.973C88.1093 104.956 89.0229 104.887 89.54 104.887H93.3667C94.1941 104.887 95.573 104.973 95.573 104.973C95.8144 104.11 96.0557 102.92 96.1936 102.039C96.0212 101.936 96.004 101.901 95.7799 101.953C95.4351 103.196 94.8146 104.438 93.5046 104.438H90.8155C90.4363 104.438 90.195 104.162 90.1778 103.696C90.126 102.247 90.1433 99.2265 90.1433 99.2265L92.1601 99.2437C93.6252 99.261 93.6942 99.6234 93.7459 100.4C93.8493 100.504 94.0217 100.504 94.1251 100.4C94.1079 99.796 94.0562 99.5889 94.0562 99.0539C94.0562 98.4844 94.1079 98.0875 94.1251 97.5698C94.0217 97.4662 93.8493 97.4662 93.7459 97.5698C93.6942 98.5189 93.6252 98.726 92.1601 98.726Z" fill="black"/>
<path d="M52.0076 41.2885L34.0281 59.7083C27.9533 67.2399 38.1623 66.3636 42.5387 68.5329C44.1086 70.1394 36.5215 71.3253 38.0914 72.9332C39.6613 74.5397 47.5843 76.0283 49.1569 77.6349C50.7268 79.2414 45.9435 80.9458 47.5134 82.5524C49.0833 84.1589 52.7142 82.6368 53.3941 86.3456C53.8786 88.996 59.9373 87.4846 62.9004 85.3139C64.4703 83.706 59.8972 83.8574 61.467 82.2509C65.371 78.2539 69.006 80.7984 70.3417 76.7934C71.0015 74.8144 64.5948 73.7425 66.1673 72.1359C70.6843 69.4949 86.2962 67.7758 78.8884 60.3595L60.2518 41.2885C57.9726 39.0978 54.169 39.0737 52.0076 41.2885ZM72.6597 76.7934C72.6597 77.7073 79.3849 78.3062 79.3849 76.5777C78.4267 73.8014 73.4547 73.989 72.6597 76.7934ZM42.3647 81.6493C43.9574 83.028 46.4173 81.3062 47.1547 79.3821C45.6116 77.3294 39.8352 79.4558 42.3647 81.6493ZM71.8165 78.6706C69.7635 80.5144 72.0467 82.3849 74.0703 81.1937C74.5214 80.7354 74.0583 79.1289 71.8165 78.6706Z" fill="black"/>
<path d="M47.7048 69.5298C48.1852 69.8286 55.4525 71.3065 57.2285 71.6013C57.8441 71.7313 57.4078 72.3664 56.5593 72.7951C54.6455 73.3043 45.3626 69.5298 47.7048 69.5298Z" fill="white"/>
<path d="M59.1651 42.5802L66.2784 49.813C66.953 50.5031 66.9436 51.8403 66.5662 52.2248L63.0343 49.3963L62.3397 53.5849L59.3886 52.0252L54.6629 55.0145L53.0983 48.7129L50.5595 53.1105H46.6782C45.0963 53.1105 44.9103 51.1007 46.3477 49.6616C48.8584 46.9483 51.7399 44.1827 53.3058 42.5802C54.8797 40.9696 57.622 41.0152 59.1651 42.5802Z" fill="white"/>
</svg>
