<svg width="158" height="65" viewBox="0 0 158 65" fill="none" xmlns="http://www.w3.org/2000/svg">
<g clip-path="url(#clip0_2062_471)">
<mask id="mask0_2062_471" style="mask-type:luminance" maskUnits="userSpaceOnUse" x="-16" y="-24" width="174" height="123">
<path d="M-15.512 -23.8229H157.689V98.8749H-15.512V-23.8229Z" fill="white"/>
</mask>
<g mask="url(#mask0_2062_471)">
<path d="M93.8227 25.6374C92.9825 25.6374 92.2786 26.0242 91.7076 26.7954C91.1396 27.5673 90.8541 28.6507 90.8541 30.0448C90.8541 31.4419 91.1254 32.5116 91.6692 33.2569C92.212 34.0045 92.9252 34.3768 93.8099 34.3768C94.6942 34.3768 95.4125 33.9999 95.9642 33.2434C96.5159 32.4896 96.7923 31.4107 96.7923 30.0061C96.7923 28.6026 96.5068 27.5223 95.9377 26.7679C95.3692 26.0144 94.6641 25.6374 93.8227 25.6374ZM93.8099 39.5071C91.3497 39.5071 89.3434 38.7005 87.7928 37.0875C86.2442 35.473 85.4696 33.1172 85.4696 30.0203C85.4696 26.9215 86.2531 24.5753 87.82 22.9776C89.3874 21.3821 91.4107 20.5836 93.8891 20.5836C96.367 20.5836 98.3686 21.3676 99.8911 22.9403C101.416 24.51 102.178 26.8896 102.178 30.0721C102.178 33.2569 101.399 35.6257 99.8392 37.1803C98.2797 38.7315 96.2713 39.5071 93.8099 39.5071Z" fill="#414042"/>
<path d="M109.541 25.8198V33.6922C109.541 34.0599 109.568 34.2916 109.62 34.3888C109.672 34.4856 109.83 34.5341 110.092 34.5341C111.057 34.5341 111.787 34.1732 112.287 33.4537C112.787 32.735 113.035 31.5383 113.035 29.8624C113.035 28.1857 112.776 27.0932 112.261 26.5857C111.744 26.0768 110.924 25.8198 109.803 25.8198H109.541ZM104.497 38.0341V22.2429C104.497 21.8039 104.606 21.4575 104.826 21.2006C105.044 20.9476 105.329 20.8192 105.68 20.8192H110.067C112.851 20.8192 114.966 21.5228 116.41 22.9267C117.856 24.3301 118.579 26.54 118.579 29.5586C118.579 36.0163 115.828 39.2445 110.329 39.2445H105.837C104.945 39.2445 104.497 38.8419 104.497 38.0341Z" fill="#414042"/>
<path d="M128.665 25.6374C127.825 25.6374 127.119 26.0242 126.549 26.7954C125.981 27.5673 125.697 28.6507 125.697 30.0448C125.697 31.4419 125.969 32.5116 126.511 33.2569C127.053 34.0045 127.767 34.3768 128.652 34.3768C129.536 34.3768 130.255 33.9999 130.806 33.2434C131.358 32.4896 131.634 31.4107 131.634 30.0061C131.634 28.6026 131.349 27.5223 130.78 26.7679C130.211 26.0144 129.507 25.6374 128.665 25.6374ZM128.652 39.5071C126.191 39.5071 124.186 38.7005 122.636 37.0875C121.086 35.473 120.311 33.1172 120.311 30.0203C120.311 26.9215 121.095 24.5753 122.661 22.9776C124.23 21.3821 126.252 20.5836 128.731 20.5836C131.21 20.5836 133.21 21.3676 134.734 22.9403C136.258 24.51 137.02 26.8896 137.02 30.0721C137.02 33.2569 136.24 35.6257 134.681 37.1803C133.122 38.7315 131.112 39.5071 128.652 39.5071Z" fill="#414042"/>
<path d="M146.811 38.8251C146.811 39.1738 145.945 39.3508 144.21 39.3508C142.477 39.3508 141.609 39.1738 141.609 38.8251V25.6109H138.457C138.159 25.6109 137.948 25.2083 137.826 24.3991C137.774 24.014 137.749 23.6197 137.749 23.2155C137.749 22.8136 137.774 22.4177 137.826 22.0319C137.948 21.2248 138.159 20.8191 138.457 20.8191H149.885C150.182 20.8191 150.392 21.2248 150.516 22.0319C150.567 22.4177 150.594 22.8136 150.594 23.2155C150.594 23.6197 150.567 24.014 150.516 24.3991C150.392 25.2083 150.182 25.6109 149.885 25.6109H146.811V38.8251Z" fill="#414042"/>
<path d="M80.8239 29.4719C79.4096 29.45 77.791 29.7453 77.791 29.7453V32.511H79.4187L79.4005 33.7438C79.4005 34.2005 78.9486 34.4299 78.0474 34.4299C77.1451 34.4299 76.3481 34.0471 75.6568 33.2836C74.9638 32.5191 74.6192 31.4017 74.6192 29.9293C74.6192 28.4538 74.9559 27.366 75.6302 26.664C76.3032 25.9628 77.1853 25.611 78.2703 25.611C78.7262 25.611 79.1981 25.6846 79.6888 25.835C80.1798 25.984 80.5077 26.1236 80.675 26.2544C80.8409 26.3889 80.9986 26.4526 81.1478 26.4526C81.2963 26.4526 81.5366 26.2787 81.8691 25.9269C82.2021 25.576 82.5004 25.0442 82.7636 24.3353C83.0256 23.6226 83.1568 23.0764 83.1568 22.6889C83.1568 22.3045 83.1485 22.0394 83.1315 21.8995C82.7636 21.4962 82.0846 21.1763 81.0943 20.9385C80.1058 20.7015 78.9975 20.5837 77.7715 20.5837C75.0736 20.5837 72.9641 21.4347 71.4406 23.1365C69.916 24.8391 69.1552 27.0492 69.1552 29.7696C69.1552 32.9637 69.934 35.385 71.4916 37.0344C73.052 38.6836 75.1006 39.5073 77.6405 39.5073C79.0063 39.5073 80.2187 39.3895 81.2779 39.1524C82.3382 38.9163 83.0431 38.6738 83.3937 38.4286L83.4989 30.192C83.4989 29.7134 82.2382 29.4961 80.8239 29.4719Z" fill="#414042"/>
<path d="M75.286 50.282C75.1408 50.5804 74.8739 50.8541 74.4834 51.1017C74.0935 51.3509 73.5981 51.4747 72.9963 51.4747C72.2024 51.4747 71.5639 51.2241 71.0789 50.7173C70.5959 50.2144 70.3539 49.4896 70.3539 48.5438V46.1854C70.3539 45.2601 70.5819 44.5505 71.0394 44.0551C71.4959 43.5636 72.1074 43.3144 72.8711 43.3144C73.6176 43.3144 74.1963 43.5112 74.6058 43.9003C75.0142 44.2908 75.2288 44.8363 75.2474 45.5329L75.2371 45.5639H74.6277C74.6058 45.03 74.4511 44.6181 74.16 44.3271C73.8705 44.0385 73.4398 43.8926 72.8711 43.8926C72.2957 43.8926 71.8398 44.0877 71.5062 44.4791C71.1734 44.8696 71.0075 45.4357 71.0075 46.1794V48.5513C71.0075 49.3225 71.1869 49.9104 71.5453 50.3154C71.9036 50.7173 72.3867 50.9187 72.9963 50.9187C73.4415 50.9187 73.7993 50.8397 74.0672 50.6779C74.3359 50.5184 74.5223 50.3238 74.6277 50.0927V48.0269H72.9849V47.4527H75.286V50.282Z" fill="#6D6E71"/>
<path d="M78.3036 50.8852C78.665 50.8852 78.9868 50.7826 79.2679 50.5737C79.5495 50.3639 79.7468 50.0988 79.8638 49.776V48.5012H78.8186C78.3741 48.5012 78.0181 48.6273 77.7517 48.8796C77.4846 49.1302 77.3524 49.4433 77.3524 49.8156C77.3524 50.1301 77.435 50.3884 77.6023 50.5875C77.7694 50.7873 78.003 50.8852 78.3036 50.8852ZM79.9613 51.3608C79.9287 51.1566 79.9034 50.9908 79.8873 50.861C79.8717 50.7288 79.8638 50.5973 79.8638 50.4637C79.6854 50.756 79.455 50.9985 79.1704 51.1885C78.8863 51.3799 78.5703 51.4748 78.2222 51.4748C77.7354 51.4748 77.361 51.3237 77.096 51.0211C76.8326 50.7173 76.6995 50.308 76.6995 49.7911C76.6995 49.2449 76.891 48.8066 77.2749 48.4814C77.6586 48.1562 78.1801 47.9937 78.836 47.9937H79.8638V47.2696C79.8638 46.8532 79.7577 46.5252 79.5495 46.2881C79.3368 46.054 79.0445 45.9356 78.6673 45.9356C78.3164 45.9356 78.027 46.0473 77.7999 46.2736C77.5734 46.4986 77.4611 46.7735 77.4611 47.101L76.8507 47.0956L76.84 47.0637C76.8228 46.6194 76.9906 46.2265 77.3445 45.8785C77.697 45.5313 78.1494 45.3588 78.6999 45.3588C79.2439 45.3588 79.6819 45.5246 80.0162 45.8549C80.3488 46.1885 80.5156 46.6641 80.5156 47.2826V50.1725C80.5156 50.383 80.5254 50.5875 80.5437 50.7826C80.5626 50.9803 80.5931 51.1708 80.6408 51.3608H79.9613Z" fill="#6D6E71"/>
<path d="M82.5653 45.4683L82.6211 46.3829C82.7756 46.0556 82.9827 45.8033 83.2394 45.624C83.497 45.4471 83.8002 45.3587 84.1483 45.3587C84.5036 45.3587 84.8031 45.4623 85.0446 45.6718C85.2864 45.8807 85.4646 46.1968 85.5779 46.6216C85.7229 46.2295 85.9281 45.9197 86.1945 45.6954C86.461 45.4706 86.7842 45.3587 87.1586 45.3587C87.6745 45.3587 88.0747 45.5679 88.3583 45.9863C88.6431 46.4057 88.7851 47.0492 88.7851 47.9185V51.3607H88.1282V47.9071C88.1282 47.1844 88.0284 46.6755 87.8343 46.3829C87.6391 46.0898 87.3592 45.9423 86.9971 45.9423C86.6162 45.9423 86.3188 46.1034 86.105 46.4309C85.8923 46.7585 85.761 47.1678 85.7133 47.6623V47.815V51.3607H85.0597V47.9108C85.0597 47.2051 84.9611 46.6999 84.7591 46.3983C84.558 46.0966 84.2783 45.9469 83.9193 45.9469C83.5761 45.9469 83.2985 46.0518 83.0904 46.2598C82.881 46.4689 82.7321 46.7552 82.6418 47.1184V51.3607H81.9889V45.4683H82.5653Z" fill="#6D6E71"/>
<path d="M92.0479 45.9355C91.6388 45.9355 91.3028 46.1225 91.0394 46.4955C90.7758 46.8699 90.6396 47.3313 90.6287 47.8812H93.3419V47.629C93.3419 47.1427 93.2281 46.7377 93 46.4165C92.7706 46.095 92.4539 45.9355 92.0479 45.9355ZM92.1403 51.4747C91.5062 51.4747 90.9875 51.2355 90.5847 50.7583C90.1831 50.282 89.9818 49.6726 89.9818 48.9303V47.9519C89.9818 47.2082 90.1836 46.5881 90.5873 46.095C90.9919 45.6042 91.478 45.3588 92.0479 45.3588C92.664 45.3588 93.1413 45.5777 93.4822 46.0169C93.8238 46.4568 93.9943 47.0478 93.9943 47.7894V48.4359H90.6287V48.9259C90.6287 49.4964 90.765 49.9713 91.0364 50.3503C91.3081 50.7303 91.6774 50.9187 92.1403 50.9187C92.4618 50.9187 92.7418 50.8618 92.9751 50.7499C93.2085 50.6355 93.4086 50.4751 93.575 50.2645L93.8424 50.728C93.6648 50.9537 93.4347 51.136 93.1539 51.2712C92.8737 51.4057 92.5351 51.4747 92.1403 51.4747Z" fill="#6D6E71"/>
<path d="M99.3015 45.9355C98.8912 45.9355 98.5545 46.1225 98.2914 46.4955C98.0293 46.8699 97.893 47.3313 97.8811 47.8812H100.595V47.629C100.595 47.1427 100.481 46.7377 100.252 46.4165C100.024 46.095 99.7073 45.9355 99.3015 45.9355ZM99.3931 51.4747C98.7588 51.4747 98.2411 51.2355 97.839 50.7583C97.4358 50.282 97.234 49.6726 97.234 48.9303V47.9519C97.234 47.2082 97.4367 46.5881 97.8395 46.095C98.2453 45.6042 98.7316 45.3588 99.3015 45.3588C99.9165 45.3588 100.396 45.5777 100.736 46.0169C101.076 46.4568 101.247 47.0478 101.247 47.7894V48.4359H97.8811V48.9259C97.8811 49.4964 98.0177 49.9713 98.2907 50.3503C98.561 50.7303 98.9287 50.9187 99.3931 50.9187C99.7159 50.9187 99.9947 50.8618 100.227 50.7499C100.462 50.6355 100.662 50.4751 100.83 50.2645L101.095 50.728C100.918 50.9537 100.688 51.136 100.407 51.2712C100.127 51.4057 99.7883 51.4747 99.3931 51.4747Z" fill="#6D6E71"/>
<path d="M102.971 45.4683L103.024 46.4423C103.181 46.0966 103.388 45.8283 103.648 45.6415C103.906 45.4539 104.21 45.3587 104.559 45.3587C105.085 45.3587 105.487 45.5534 105.767 45.9446C106.049 46.3351 106.189 46.9422 106.189 47.7658V51.3607H105.532V47.7719C105.532 47.0986 105.433 46.6284 105.237 46.3556C105.043 46.0828 104.757 45.9469 104.385 45.9469C104.051 45.9469 103.771 46.0556 103.546 46.2766C103.321 46.4955 103.153 46.7871 103.041 47.1548V51.3607H102.388V45.4683H102.971Z" fill="#6D6E71"/>
<path d="M108.104 48.9304C108.104 49.5284 108.217 50.004 108.447 50.3579C108.673 50.715 109.018 50.8913 109.479 50.8913C109.794 50.8913 110.06 50.8071 110.278 50.6346C110.496 50.4621 110.667 50.2219 110.794 49.9172V46.9984C110.672 46.6846 110.504 46.431 110.292 46.2356C110.081 46.0435 109.813 45.947 109.49 45.947C109.031 45.947 108.683 46.1475 108.452 46.5501C108.22 46.9534 108.104 47.4794 108.104 48.1251V48.9304ZM107.445 48.1251C107.445 47.2901 107.613 46.6193 107.952 46.1139C108.287 45.6111 108.754 45.3588 109.349 45.3588C109.679 45.3588 109.968 45.4395 110.216 45.6013C110.464 45.76 110.669 45.9925 110.834 46.2881L110.897 45.4684H111.451V51.3661C111.451 52.1213 111.277 52.7064 110.926 53.1205C110.574 53.5329 110.075 53.7418 109.43 53.7418C109.198 53.7418 108.949 53.7054 108.682 53.6348C108.415 53.5641 108.179 53.4713 107.972 53.355L108.153 52.7808C108.329 52.8955 108.527 52.9843 108.746 53.0468C108.963 53.1114 109.187 53.1424 109.419 53.1424C109.887 53.1424 110.233 52.992 110.457 52.692C110.682 52.388 110.794 51.9483 110.794 51.3661V50.6535C110.627 50.9188 110.423 51.1223 110.18 51.2629C109.938 51.4041 109.656 51.4748 109.337 51.4748C108.746 51.4748 108.283 51.2431 107.948 50.7796C107.613 50.3171 107.445 49.7 107.445 48.9304V48.1251Z" fill="#6D6E71"/>
<path d="M113.649 51.3608H112.991V45.4684H113.649V51.3608ZM113.649 43.7908H112.991V42.8624H113.649V43.7908Z" fill="#6D6E71"/>
<path d="M115.775 45.4683L115.828 46.4423C115.986 46.0966 116.192 45.8283 116.451 45.6415C116.711 45.4539 117.015 45.3587 117.363 45.3587C117.888 45.3587 118.292 45.5534 118.572 45.9446C118.854 46.3351 118.993 46.9422 118.993 47.7658V51.3607H118.336V47.7719C118.336 47.0986 118.237 46.6284 118.042 46.3556C117.846 46.0828 117.562 45.9469 117.189 45.9469C116.855 45.9469 116.575 46.0556 116.351 46.2766C116.126 46.4955 115.957 46.7871 115.846 47.1548V51.3607H115.192V45.4683H115.775Z" fill="#6D6E71"/>
<path d="M122.267 45.9355C121.856 45.9355 121.52 46.1225 121.258 46.4955C120.995 46.8699 120.858 47.3313 120.847 47.8812H123.56V47.629C123.56 47.1427 123.447 46.7377 123.218 46.4165C122.99 46.095 122.673 45.9355 122.267 45.9355ZM122.36 51.4747C121.724 51.4747 121.206 51.2355 120.805 50.7583C120.403 50.282 120.202 49.6726 120.202 48.9303V47.9519C120.202 47.2082 120.403 46.5881 120.807 46.095C121.211 45.6042 121.698 45.3588 122.267 45.3588C122.882 45.3588 123.362 45.5777 123.703 46.0169C124.043 46.4568 124.214 47.0478 124.214 47.7894V48.4359H120.847V48.9259C120.847 49.4964 120.984 49.9713 121.256 50.3503C121.527 50.7303 121.895 50.9187 122.36 50.9187C122.682 50.9187 122.96 50.8618 123.193 50.7499C123.428 50.6355 123.627 50.4751 123.795 50.2645L124.062 50.728C123.883 50.9537 123.654 51.136 123.373 51.2712C123.093 51.4057 122.755 51.4747 122.36 51.4747Z" fill="#6D6E71"/>
<path d="M56.1088 41.3126C56.1088 41.3126 56.0332 40.8478 55.9889 40.8519L47.5697 41.6658C46.8998 41.7306 46.3795 42.2659 46.3325 42.9385L46.1012 46.2599L39.5877 46.7255L39.1447 43.7153C39.046 43.0457 38.4624 42.541 37.7869 42.541H28.9009C28.2257 42.541 27.6421 43.0457 27.5434 43.7153L27.1002 46.7255L20.5867 46.2599L20.3554 42.9385C20.3084 42.2657 19.7881 41.7304 19.1182 41.6656L10.6948 40.8519C10.6512 40.8478 10.6194 41.3131 10.5759 41.3131L10.5645 43.1385L17.6983 44.2911L17.9319 47.6421C17.9791 48.3206 18.5255 48.8691 19.2031 48.9178L28.1736 49.559C28.2075 49.5613 28.241 49.5627 28.2745 49.5627C28.9486 49.5627 29.5313 49.0577 29.63 48.3882L30.0858 45.2908H36.6023L37.0582 48.3882C37.1566 49.0575 37.7399 49.5625 38.415 49.5625C38.448 49.5625 38.4811 49.5613 38.5134 49.559L47.485 48.9178C48.1624 48.8691 48.709 48.3206 48.7562 47.6421L48.9896 44.2911L56.1204 43.1334L56.1088 41.3126Z" fill="white"/>
<path d="M10.5757 27.5483V38.6253V40.0322V41.3126C10.6009 41.3128 10.626 41.3138 10.6509 41.3161L19.0734 42.1297C19.5145 42.1724 19.8603 42.5281 19.891 42.9711L20.1507 46.6961L27.4977 47.2213L28.0038 43.7833C28.0694 43.3376 28.451 43.0072 28.9011 43.0072H37.787C38.2368 43.0072 38.6185 43.3376 38.6841 43.7833L39.1902 47.2213L46.5374 46.6961L46.7968 42.9711C46.8278 42.5281 47.1733 42.1726 47.6145 42.1297L56.0337 41.3161C56.0586 41.3138 56.0835 41.3128 56.1086 41.3126V40.2143L56.1121 40.2131V27.5483C57.2981 26.0524 58.4212 24.4023 59.2816 23.0141C57.9667 20.7713 56.3555 18.7671 54.6334 16.9102C53.0362 17.7157 51.4848 18.6282 50.0196 19.5992C49.2864 18.869 48.4606 18.2717 47.6494 17.6474C46.8524 17.006 45.9543 16.5358 45.1024 15.9879C45.356 14.0956 45.4814 12.2327 45.5319 10.2883C43.3339 9.18003 40.99 8.4452 38.6191 7.91739C37.6726 9.51131 36.807 11.2374 36.053 12.9248C35.159 12.7752 34.2609 12.7197 33.3615 12.7089V12.7075C33.3552 12.7075 33.3494 12.7089 33.3441 12.7089C33.3385 12.7089 33.3326 12.7075 33.3271 12.7075V12.7089C32.4261 12.7197 31.5286 12.7752 30.6344 12.9248C29.8809 11.2374 29.0158 9.51131 28.0678 7.91739C25.6981 8.4452 23.3539 9.18003 21.1562 10.2883C21.2064 12.2327 21.3319 14.0956 21.5862 15.9879C20.7327 16.5358 19.8357 17.006 19.0385 17.6474C18.2285 18.2717 17.4012 18.869 16.6678 19.5992C15.2026 18.6282 13.6517 17.7157 12.054 16.9102C10.3319 18.7671 8.72165 20.7713 7.40625 23.0141C8.44002 24.6399 9.54886 26.2739 10.5757 27.5483Z" fill="#478CBF"/>
<path d="M48.5528 43.8649L48.2919 47.6097C48.2605 48.061 47.9022 48.4203 47.4517 48.4527L38.4803 49.094C38.4584 49.0956 38.4365 49.0963 38.4149 49.0963C37.9691 49.0963 37.5844 48.7686 37.5186 48.32L37.0041 44.8244H29.6839L29.1694 48.32C29.1003 48.7905 28.6805 49.1288 28.2077 49.094L19.2363 48.4527C18.7858 48.4203 18.4275 48.061 18.3961 47.6097L18.1352 43.8649L10.5618 43.1333C10.5653 43.9488 10.5758 44.8422 10.5758 45.02C10.5758 53.0337 20.7223 56.8855 33.3285 56.9298H33.3439H33.3595C45.9657 56.8855 56.1087 53.0337 56.1087 45.02C56.1087 44.8389 56.1196 43.9493 56.1234 43.1333L48.5528 43.8649Z" fill="#478CBF"/>
<path d="M26.4802 33.1357C26.4802 35.9454 24.208 38.2214 21.4045 38.2214C18.6025 38.2214 16.3295 35.9454 16.3295 33.1357C16.3295 30.3278 18.6025 28.0529 21.4045 28.0529C24.208 28.0529 26.4802 30.3278 26.4802 33.1357Z" fill="white"/>
<path d="M25.2589 33.4373C25.2589 35.3009 23.7513 36.8114 21.8898 36.8114C20.0292 36.8114 18.5206 35.3009 18.5206 33.4373C18.5206 31.5736 20.0292 30.0618 21.8898 30.0618C23.7513 30.0618 25.2589 31.5736 25.2589 33.4373Z" fill="#414042"/>
<path d="M33.3436 38.6841C32.4412 38.6841 31.7098 38.0179 31.7098 37.1965V32.515C31.7098 31.6944 32.4412 31.0274 33.3436 31.0274C34.2459 31.0274 34.9789 31.6944 34.9789 32.515V37.1965C34.9789 38.0179 34.2459 38.6841 33.3436 38.6841Z" fill="white"/>
<path d="M40.2078 33.1357C40.2078 35.9454 42.48 38.2214 45.2839 38.2214C48.0857 38.2214 50.3584 35.9454 50.3584 33.1357C50.3584 30.3278 48.0857 28.0529 45.2839 28.0529C42.48 28.0529 40.2078 30.3278 40.2078 33.1357Z" fill="white"/>
<path d="M41.4294 33.4373C41.4294 35.3009 42.9365 36.8114 44.7966 36.8114C46.6586 36.8114 48.1658 35.3009 48.1658 33.4373C48.1658 31.5736 46.6586 30.0618 44.7966 30.0618C42.9365 30.0618 41.4294 31.5736 41.4294 33.4373Z" fill="#414042"/>
</g>
</g>
<defs>
<clipPath id="clip0_2062_471">
<rect width="158" height="64" fill="white" transform="translate(0 0.350098)"/>
</clipPath>
</defs>
</svg>
