<svg width="143" height="45" viewBox="0 0 143 45" fill="none" xmlns="http://www.w3.org/2000/svg">
<g clip-path="url(#clip0_2062_528)">
<path d="M8.7406 0.350098L4.08644 6.86683V10.5505L0.0365022 12.4655L0 12.4486V36.4813L15.7901 43.8974L16.7549 44.3501L17.7199 43.8974L33.5098 36.4813V12.4486L33.48 12.4625L29.4291 10.5468V6.86683L29.2873 6.66866L24.7746 0.350098L20.1204 6.86683V6.87327L16.7337 2.13145L13.3734 6.83685L13.2531 6.66866L8.7406 0.350098ZM9.56397 4.13555L11.3641 6.65579H6.1171L7.89626 4.16515L9.56397 4.13555ZM25.5978 4.13555L27.3983 6.65579H22.1511L23.9299 4.16515L25.5978 4.13555ZM17.557 5.91716L19.3572 8.43727H14.1106L15.8893 5.9465L17.557 5.91716ZM5.61953 7.92602H8.10802V16.2565L5.61953 15.0877V7.92602ZM9.38573 7.92602H11.8619V18.0192L9.38573 16.8565V7.92602ZM21.6538 7.92602H24.1422V16.8478L21.6538 18.0165V7.92602ZM25.4196 7.92602H27.8956V15.0849L25.4196 16.2477V7.92602ZM13.6127 9.70737H16.1014V20.0103L13.6127 18.8414V9.70737ZM17.3791 9.70737H19.8549V18.8615L17.3791 20.0245V9.70737ZM135.674 10.6169L135.662 15.2546L133.16 15.2376V17.1273H135.669V27.0903C135.669 27.8159 135.726 28.489 135.842 29.1092L135.843 29.1146L135.844 29.1201C135.986 29.7538 136.225 30.3062 136.567 30.7672C136.911 31.232 137.372 31.5893 137.929 31.8305C138.496 32.0989 139.187 32.2242 139.997 32.2242C140.367 32.2242 140.79 32.1644 141.274 32.0497C141.765 31.933 142.247 31.7846 142.718 31.6055L143 31.4987L142.392 29.6865L142.073 29.8328C141.454 30.0995 140.847 30.2991 140.198 30.3027C139.675 30.3027 139.264 30.2281 138.963 30.0992C138.676 29.9447 138.454 29.7509 138.286 29.5104C138.11 29.237 137.98 28.9226 137.899 28.5611C137.836 28.1615 137.803 27.7161 137.803 27.2235V17.1272H142.452V15.2392H137.803V10.6169H135.674ZM29.4285 12.4452L31.6196 13.3358L29.4285 14.3648V12.4452ZM4.08644 12.4486V14.3679L1.89591 13.3389L4.08644 12.4486ZM106.758 14.8396L106.758 14.8399V14.8401C105.703 14.8401 104.68 15.0983 103.702 15.6073L103.701 15.6082L103.699 15.6089C102.91 16.0301 102.251 16.4699 101.558 16.9896L101.545 15.2393H99.4864V39.0417H101.586V30.5336C102.275 31.0002 102.954 31.4048 103.62 31.6989L103.623 31.7004L103.627 31.702C104.462 32.0479 105.285 32.2245 106.089 32.2245C107.068 32.2245 108.006 32.0266 108.893 31.6322L108.895 31.6315L108.897 31.6306C109.806 31.2134 110.601 30.6199 111.275 29.8574L111.275 29.8576C111.973 29.0711 112.517 28.1254 112.908 27.0287C113.301 25.9253 113.494 24.681 113.494 23.2996C113.494 20.773 112.949 18.7293 111.83 17.1984L111.829 17.1977C110.701 15.6324 108.971 14.8396 106.758 14.8396ZM55.9024 14.8401C54.8477 14.8401 53.8241 15.0983 52.8467 15.6073L52.8451 15.6082L52.8438 15.6089C52.054 16.0301 51.395 16.4701 50.7021 16.9899L50.6897 15.2393H48.6308V39.0419H50.7307V30.5338C51.4188 31.0006 52.0986 31.405 52.7642 31.6991L52.7676 31.7007L52.7711 31.7023C53.6063 32.0483 54.4291 32.2249 55.2334 32.2249C56.2124 32.2249 57.1508 32.0268 58.0376 31.6324L58.0392 31.6315L58.0411 31.6309C58.9502 31.2138 59.7457 30.6202 60.4198 29.8576L60.4192 29.8579C61.1171 29.0715 61.6613 28.1258 62.0519 27.0291C62.4451 25.9256 62.6386 24.6812 62.6386 23.3C62.6386 20.7734 62.0934 18.7297 60.9741 17.1987L60.9737 17.1981C59.8456 15.6332 58.1158 14.8403 55.9024 14.8401ZM90.0934 14.8401C88.9274 14.8401 87.8704 15.1335 86.9501 15.719C86.1987 16.1789 85.4706 16.7648 84.757 17.4292L84.7717 15.2393H82.7546V31.8256H84.8551V19.7909C85.7869 18.8531 86.6261 17.9649 87.3507 17.5121L87.3533 17.5103L87.3559 17.5086C88.0869 17.0309 88.8895 16.7951 89.7923 16.7951C91.0423 16.7951 91.8484 17.1619 92.3417 17.8878L92.3444 17.8917L92.3475 17.8959C92.865 18.6083 93.1575 19.7989 93.1575 21.4707V31.8256H95.2577V21.271C95.2577 19.1483 94.8664 17.538 94.0208 16.457C93.1736 15.3742 91.8287 14.8401 90.0934 14.8401ZM72.8253 14.8401C71.8872 14.8401 70.9697 15.0512 70.0848 15.4673L70.0835 15.468C69.218 15.8635 68.4362 16.4451 67.7424 17.2038L67.7421 17.204C67.0658 17.9459 66.5226 18.8568 66.1095 19.929L66.1083 19.9318L66.1074 19.9345C65.7141 21.0159 65.5199 22.2277 65.5199 23.5656C65.5199 24.9036 65.7141 26.1155 66.1076 27.1969L66.1086 27.2006L66.1103 27.2043C66.524 28.2553 67.079 29.1657 67.7759 29.9278L67.7777 29.9293L67.7792 29.9312C68.4769 30.671 69.2957 31.2411 70.2269 31.6346L70.2282 31.635L70.2296 31.6354C71.1823 32.028 72.1955 32.2244 73.2601 32.2244C74.4701 32.2244 75.4811 32.0564 76.294 31.7006L76.2956 31.6996C77.0861 31.3628 77.8108 31.0026 78.4698 30.6187L78.7296 30.4675L77.8155 28.7512L77.5216 28.9675C76.9438 29.3931 76.3739 29.6578 75.6877 29.9139C75.0362 30.1432 74.2328 30.2608 73.3938 30.2608C72.5197 30.2608 71.7434 30.1784 71.0532 29.8673C70.3561 29.5308 69.7582 29.0818 69.2516 28.5165C68.7664 27.9282 68.3838 27.2335 68.1054 26.4246L68.1051 26.424C67.8581 25.6869 67.7283 24.8886 67.6829 24.0447H79.2613C79.2613 23.7191 79.2928 23.4066 79.2939 23.1336V22.5349C79.2939 20.137 78.7344 18.2371 77.5808 16.8797C76.4295 15.5251 74.8136 14.8403 72.8251 14.8403L72.8253 14.8401ZM123.72 14.8401C122.72 14.8401 121.76 15.0378 120.852 15.4314C119.943 15.8252 119.137 16.3951 118.44 17.1336L118.439 17.1356L118.437 17.1374C117.759 17.8805 117.216 18.8034 116.803 19.8979L116.802 19.8994L116.802 19.9013C116.408 20.9832 116.214 22.206 116.214 23.5656C116.214 24.9252 116.408 26.1482 116.802 27.2302L116.803 27.2339L116.805 27.2376C117.218 28.2874 117.761 29.1867 118.436 29.9275L118.438 29.9292L118.44 29.9312C119.137 30.6699 119.943 31.2394 120.852 31.6332C121.76 32.027 122.72 32.2245 123.72 32.2245C124.721 32.2245 125.68 32.0268 126.589 31.6332C127.519 31.2398 128.327 30.6696 129.002 29.9294C129.701 29.1876 130.246 28.2858 130.637 27.2335C131.054 26.1505 131.26 24.9261 131.26 23.5656C131.26 22.2057 131.054 20.9818 130.638 19.8993C130.247 18.8037 129.703 17.879 129.002 17.1352C128.326 16.3953 127.519 15.8248 126.589 15.4314C125.68 15.0378 124.721 14.8401 123.72 14.8401H123.72ZM1.9297 15.4766L15.7901 21.986V41.7753L1.92957 35.266L1.9297 15.4766ZM31.58 15.4766V35.266L17.7199 41.7753V21.9859L31.58 15.4766ZM72.8583 16.7284H72.8585C74.2338 16.7284 75.2704 17.1923 76.0618 18.1447L76.0624 18.146L76.0634 18.1475C76.7987 19.0133 77.1994 20.3746 77.2431 22.2226H67.7067C67.8064 21.4402 67.972 20.7219 68.2313 20.0955C68.553 19.3719 68.9459 18.7616 69.4087 18.2592C69.8949 17.7556 70.4265 17.3839 71.0086 17.1358L71.0128 17.1338L71.0171 17.1318C71.6013 16.8622 72.2108 16.7285 72.8581 16.7285L72.8583 16.7284ZM55.6683 16.7617C56.5417 16.7617 57.2661 16.9303 57.8579 17.255L57.8617 17.2569L57.8654 17.259C58.4648 17.5672 58.9437 18.0022 59.3174 18.5802L59.3191 18.5825L59.3205 18.5845C59.696 19.1447 59.9725 19.8263 60.1441 20.637L60.1448 20.641L60.1461 20.6449C60.3403 21.4608 60.4386 22.3455 60.4386 23.2997C60.4386 24.3584 60.2972 25.3232 60.0183 26.198L60.0174 26.2003L60.0167 26.2027C59.7584 27.059 59.3954 27.7885 58.9302 28.3981C58.4658 29.0068 57.9128 29.4726 57.2634 29.8058C56.6162 30.1378 55.9228 30.303 55.1665 30.303C54.5945 30.303 53.9169 30.159 53.1397 29.8587C52.4121 29.5772 51.6032 28.8859 50.7311 28.1981V19.3632C51.6561 18.5795 52.5189 17.836 53.306 17.4241L53.3073 17.4237L53.3086 17.4228C54.1427 16.9763 54.9266 16.7617 55.6683 16.7617ZM106.524 16.7615L106.524 16.7617C107.397 16.7617 108.122 16.9303 108.714 17.255L108.717 17.2569L108.721 17.259C109.32 17.5672 109.799 18.0022 110.173 18.5802L110.175 18.5825L110.176 18.5845C110.552 19.1447 110.828 19.8263 111 20.637L111 20.641L111.002 20.6449C111.196 21.4608 111.294 22.3455 111.294 23.2997C111.294 24.3584 111.153 25.3232 110.874 26.198L110.873 26.2003L110.872 26.2027C110.614 27.059 110.251 27.7885 109.786 28.3981C109.321 29.0068 108.768 29.4726 108.119 29.8058C107.472 30.1378 106.778 30.303 106.022 30.303C105.45 30.303 104.772 30.159 103.995 29.8587C103.267 29.5772 102.459 28.8859 101.586 28.1981V19.3632C102.511 18.5795 103.374 17.836 104.161 17.4241L104.163 17.4234L104.164 17.4228C104.998 16.9763 105.782 16.7616 106.524 16.7616V16.7615ZM123.72 16.7615V16.7617C124.477 16.7617 125.17 16.9271 125.817 17.2592L125.823 17.2618L125.828 17.2644C126.496 17.5758 127.056 18.028 127.518 18.6336L127.521 18.6383L127.525 18.6428C128.011 19.2309 128.394 19.938 128.674 20.7714C128.952 21.5996 129.093 22.5297 129.093 23.5657C129.093 24.5788 128.952 25.4977 128.674 26.3266C128.394 27.1601 128.011 27.8669 127.525 28.455L127.523 28.4577L127.521 28.4605C127.058 29.0455 126.496 29.5012 125.823 29.836C125.175 30.1474 124.479 30.3029 123.72 30.3029C122.963 30.3029 122.267 30.1475 121.62 29.8369C120.969 29.5023 120.404 29.045 119.918 28.457C119.453 27.8688 119.08 27.1607 118.8 26.3266C118.522 25.4976 118.381 24.5788 118.381 23.5656C118.381 22.5297 118.523 21.5996 118.8 20.7714C119.08 19.9362 119.454 19.2274 119.919 18.6388L119.919 18.6384L119.92 18.6375C120.406 18.0282 120.969 17.5737 121.616 17.2626L121.62 17.2606L121.623 17.2591C122.27 16.927 122.964 16.7616 123.72 16.7616L123.72 16.7615Z" fill="black"/>
</g>
<defs>
<clipPath id="clip0_2062_528">
<rect width="143" height="44" fill="white" transform="translate(0 0.350098)"/>
</clipPath>
</defs>
</svg>
